<svg width="368" height="551" viewBox="0 0 368 551" fill="none" xmlns="http://www.w3.org/2000/svg">
<path d="M40.5117 60.8364C27.3077 69.8882 9.33557 74.7912 2 76.1113C3.42636 189.447 5.54553 422.454 2.6113 447.799C-0.322931 473.144 17.2824 482.875 26.4519 484.572L78.4122 500.978C142.965 514.556 176.22 538.317 184.778 548.5C200.427 523.155 285.846 498.338 326.599 489.098C357.408 484.119 365.926 466.657 366.333 458.548V76.1113C357.571 76.1113 331.978 69.3225 299.702 42.1672C267.425 15.0119 238.165 9.35455 227.569 9.92029C219.255 26.2135 202.913 21.235 195.781 16.7091L184.167 2L170.107 16.7091C154.947 25.7609 142.598 15.9548 138.319 9.92029C97.3624 10.486 57.0168 49.5217 40.5117 60.8364Z" fill="url(#paint0_linear_55295_1232)" stroke="#8BC342" stroke-width="2.02407"/>
<path d="M40.5117 60.8364C27.3077 69.8882 9.33557 74.7912 2 76.1113C3.42636 189.447 5.54553 422.454 2.6113 447.799C-0.322931 473.144 17.2824 482.875 26.4519 484.572L78.4122 500.978C142.965 514.556 176.22 538.317 184.778 548.5C200.427 523.155 285.846 498.338 326.599 489.098C357.408 484.119 365.926 466.657 366.333 458.548V76.1113C357.571 76.1113 331.978 69.3225 299.702 42.1672C267.425 15.0119 238.165 9.35455 227.569 9.92029C219.255 26.2135 202.913 21.235 195.781 16.7091L184.167 2L170.107 16.7091C154.947 25.7609 142.598 15.9548 138.319 9.92029C97.3624 10.486 57.0168 49.5217 40.5117 60.8364Z" fill="url(#paint1_linear_55295_1232)"/>
<path d="M44.5874 68.1677C31.7579 76.9627 14.2955 81.7267 7.16797 83.0093C8.55387 193.13 10.6129 419.529 7.76193 444.155C4.91092 468.781 22.017 478.236 30.9264 479.885L81.4129 495.826C144.135 509.019 176.447 532.106 184.762 542C199.967 517.374 282.963 493.261 322.561 484.283C352.496 479.445 360.772 462.478 361.168 454.599V83.0093C352.655 83.0093 327.787 76.413 296.426 50.0279C265.065 23.6429 236.634 18.146 226.339 18.6957C218.261 34.5267 202.383 29.6894 195.453 25.2919L184.168 11L170.507 25.2919C155.777 34.087 143.779 24.559 139.621 18.6957C99.8257 19.2453 60.6243 57.1739 44.5874 68.1677Z" stroke="#335605" stroke-width="2.02407"/>
<path d="M119 311H27V67.1064C31.4675 65.1128 35.9297 62.7507 39.9395 60.002C44.0315 57.1967 49.6006 52.6724 56.375 47.3887C63.1258 42.1233 71.0236 36.1446 79.6943 30.499C91.5999 22.7473 105.023 15.5833 119 11.7705V311Z" fill="url(#paint2_linear_55295_1232)"/>
<defs>
<linearGradient id="paint0_linear_55295_1232" x1="170.565" y1="-151.114" x2="177.093" y2="548.566" gradientUnits="userSpaceOnUse">
<stop stop-color="#385019"/>
<stop offset="1" stop-color="#75B11D"/>
</linearGradient>
<linearGradient id="paint1_linear_55295_1232" x1="170.565" y1="-151.114" x2="177.093" y2="548.566" gradientUnits="userSpaceOnUse">
<stop stop-color="#385019"/>
<stop offset="1" stop-color="#75B11D"/>
</linearGradient>
<linearGradient id="paint2_linear_55295_1232" x1="73" y1="466.501" x2="66.8173" y2="-6.91828" gradientUnits="userSpaceOnUse">
<stop stop-color="#8BC342" stop-opacity="0"/>
<stop offset="1" stop-color="#111B05"/>
</linearGradient>
</defs>
</svg>
